<svg xmlns="http://www.w3.org/2000/svg" viewBox="0 0 1600 1080">
  <!-- familyrpg — source-of-truth world map (v3). Heart-shaped continent, contiguous territories.
       Parchment/ink cartography, hand-authored, static. Color to be added by a later tool. -->

  <defs>
    <g id="pine">
      <rect x="-1.4" y="2" width="2.8" height="6" fill="#5b4630"/>
      <path d="M0,-22 L-8,-4 L8,-4 Z" fill="#5c7448" stroke="#33472b" stroke-width="0.8"/>
      <path d="M0,-13 L-10,4 L10,4 Z" fill="#476438" stroke="#33472b" stroke-width="0.8"/>
    </g>
    <g id="peak">
      <path d="M0,-40 L-30,10 L30,10 Z" fill="#c9bda3" stroke="#4a3527" stroke-width="2"/>
      <path d="M0,-40 L30,10 L9,10 L0,-27 Z" fill="#b3a68a"/>
      <path d="M0,-40 L-11,-22 L-3,-27 L2,-20 L10,-24 Z" fill="#efe6d2" stroke="#4a3527" stroke-width="0.8"/>
    </g>
    <g id="fort">
      <path d="M-11,6 L-11,-6 L-7,-6 L-7,-10 L-3,-10 L-3,-6 L3,-6 L3,-10 L7,-10 L7,-6 L11,-6 L11,6 Z"
            fill="#b3a68a" stroke="#4a3527" stroke-width="1.6"/>
      <path d="M0,-10 L0,-22 L12,-18 L0,-15" fill="#a33d2f" stroke="#4a3527" stroke-width="1.2"/>
    </g>
  </defs>

  <!-- ===================== OCEAN ===================== -->
  <rect x="0" y="0" width="1600" height="1080" fill="#a4bcbe"/>
  <g fill="#9ab3b6" opacity="0.6">
    <ellipse cx="110" cy="90" rx="150" ry="70"/>
    <ellipse cx="1470" cy="990" rx="180" ry="90"/>
    <ellipse cx="70" cy="880" rx="110" ry="150"/>
    <ellipse cx="1520" cy="220" rx="120" ry="120"/>
  </g>
  <g stroke="#8fabae" stroke-width="1.4" fill="none" stroke-linecap="round" opacity="0.7">
    <path d="M60,120 q10,-6 20,0 q10,6 20,0"/>
    <path d="M110,150 q10,-6 20,0 q10,6 20,0"/>
    <path d="M1360,120 q10,-6 20,0 q10,6 20,0"/>
    <path d="M1430,180 q10,-6 20,0 q10,6 20,0"/>
    <path d="M55,980 q10,-6 20,0 q10,6 20,0"/>
    <path d="M100,1020 q10,-6 20,0 q10,6 20,0"/>
    <path d="M1500,940 q10,-6 20,0 q10,6 20,0"/>
    <path d="M900,1015 q10,-6 20,0 q10,6 20,0"/>
    <path d="M40,470 q10,-6 20,0 q10,6 20,0"/>
    <path d="M1540,560 q10,-6 20,0 q10,6 20,0"/>
  </g>

  <!-- ===================== LANDMASS (heart-shaped, single southern point) ===================== -->
  <path d="M760,332
           C748,300 718,248 658,220 C598,192 500,176 430,186
           C330,196 250,230 195,300 C150,362 148,455 175,545
           C182,645 195,735 240,825 C300,900 380,948 500,980
           C610,1006 712,1014 768,1026
           C792,1016 858,1000 960,972 C1110,915 1230,828 1300,732
           C1348,662 1360,600 1368,545 C1394,455 1392,362 1345,300
           C1278,208 1162,175 1072,186 C1000,194 900,208 840,226
           C778,250 772,300 760,332 Z"
        fill="none" stroke="#7fa0a3" stroke-width="14" opacity="0.5" stroke-linejoin="round"/>
  <path d="M760,332
           C748,300 718,248 658,220 C598,192 500,176 430,186
           C330,196 250,230 195,300 C150,362 148,455 175,545
           C182,645 195,735 240,825 C300,900 380,948 500,980
           C610,1006 712,1014 768,1026
           C792,1016 858,1000 960,972 C1110,915 1230,828 1300,732
           C1348,662 1360,600 1368,545 C1394,455 1392,362 1345,300
           C1278,208 1162,175 1072,186 C1000,194 900,208 840,226
           C778,250 772,300 760,332 Z"
        fill="#e8dcc0" stroke="#4a3527" stroke-width="2.6" stroke-linejoin="round"/>

  <!-- ===================== TERRITORY TINTS (contiguous) ===================== -->
  <!-- Wasteland (NW, reaches ocean) -->
  <path d="M560,300 C540,250 500,215 470,200 C380,178 268,210 200,298
           C158,360 152,452 176,540 Q300,470 440,438 Q520,388 560,300 Z"
        fill="#c6b48c" opacity="0.55"/>
  <!-- Northland Tundra (N-center, between lobes) -->
  <path d="M560,305 Q622,252 700,236 Q760,322 836,248 Q890,278 908,360
           L908,470 Q890,505 830,512 L700,515 Q620,512 575,478 Q560,410 558,350 Z"
        fill="#cdd3c9" opacity="0.6"/>
  <!-- Deepwoods (NE lobe) -->
  <path d="M908,300 Q960,205 1050,182 Q1160,175 1258,255 Q1340,300 1388,362
           Q1414,452 1400,542 L1360,560 Q1200,556 1050,552 Q955,545 918,485
           L910,400 Q908,340 908,300 Z"
        fill="#7d8a63" opacity="0.4"/>
  <!-- Great Plains (human, LARGEST) -->
  <path d="M545,555 Q560,512 605,506 Q720,516 830,520 Q910,528 955,548
           Q1060,556 1200,558 L1362,556 L1368,560
           C1315,720 1215,825 1100,900
           C990,955 875,983 782,996
           C700,988 620,978 560,972
           C530,700 528,850 545,555 Z"
        fill="#a9b285" opacity="0.5"/>
  <!-- White Cliff Mountains (dwarf, SW arm) -->
  <path d="M545,555 Q535,530 500,510 Q440,505 340,512 Q260,522 190,542
           C200,650 215,735 258,820
           C325,898 415,946 535,976
           C555,975 559,973 560,972
           C528,850 530,700 545,555 Z"
        fill="#cfc7b0" opacity="0.55"/>
  <!-- Volcano / Ashhaven patch (tiefling, small W) -->
  <path d="M250,548 Q300,522 352,550 Q374,588 342,616 Q290,632 256,602 Q238,572 250,548 Z"
        fill="#b9a07f" opacity="0.6"/>

  <!-- ===================== HEARTMERE ===================== -->
  <path d="M640,510 Q715,500 800,512 Q825,545 818,608 Q812,668 760,700
           Q700,720 655,706 Q612,690 600,640 Q592,575 640,510 Z"
        fill="#5f8592" stroke="#3f6270" stroke-width="2.2"/>
  <path d="M648,520 Q718,512 792,522" fill="none" stroke="#7fa0aa" stroke-width="1.4" opacity="0.7"/>
  <!-- island -->
  <path d="M700,606 q22,-6 34,8 q6,16 -12,22 q-24,4 -28,-12 q-2,-14 6,-18 Z"
        fill="#e0d4b2" stroke="#4a3527" stroke-width="1.6"/>
  <path d="M718,614 L712,624 L724,624 Z" fill="#5c7448" stroke="#33472b" stroke-width="0.7"/>

  <!-- ===================== MOUNTAINS ===================== -->
  <g>
    <use href="#peak" transform="translate(245,645) scale(0.9)"/>
    <use href="#peak" transform="translate(305,655) scale(1.15)"/>
    <use href="#peak" transform="translate(365,655) scale(0.9)"/>
    <use href="#peak" transform="translate(225,720) scale(0.85)"/>
    <use href="#peak" transform="translate(290,755) scale(1.05)"/>
    <use href="#peak" transform="translate(415,672) scale(0.9)"/>
    <use href="#peak" transform="translate(475,748) scale(0.85)"/>
    <use href="#peak" transform="translate(286,796) scale(0.9)"/>
    <use href="#peak" transform="translate(360,782) scale(1.0)"/>
    <use href="#peak" transform="translate(440,800) scale(0.9)"/>
    <use href="#peak" transform="translate(500,772) scale(0.8)"/>
    <use href="#peak" transform="translate(330,850) scale(0.9)"/>
    <use href="#peak" transform="translate(418,858) scale(0.95)"/>
    <use href="#peak" transform="translate(492,842) scale(0.85)"/>
    <use href="#peak" transform="translate(522,745) scale(0.78)"/>
    <use href="#peak" transform="translate(524,700) scale(0.82)"/>
  </g>

  <!-- ===================== VOLCANO / ASHHAVEN ===================== -->
  <g>
    <path d="M300,528 L252,616 L348,616 Z" fill="#8a7361" stroke="#4a3527" stroke-width="2.2"/>
    <path d="M300,528 L348,616 L306,616 L300,566 Z" fill="#6b564a"/>
    <path d="M284,566 L300,528 L316,566 L308,556 L300,574 L292,556 Z" fill="#a33d2f"/>
    <path d="M293,564 q-6,14 4,26 M307,564 q7,14 -2,28" fill="none" stroke="#a33d2f" stroke-width="2" stroke-linecap="round"/>
    <path d="M300,524 q-10,-16 4,-28 q12,-12 2,-26" fill="none" stroke="#8a7a5f" stroke-width="2.2" stroke-linecap="round" opacity="0.8"/>
    <!-- walled town built into the cone base -->
    <path d="M266,604 L266,596 L272,596 L272,600 L280,600 L280,596 L286,596 L286,604 Z" fill="#c9bda3" stroke="#4a3527" stroke-width="1.3"/>
    <path d="M314,604 L314,596 L320,596 L320,600 L328,600 L328,596 L334,596 L334,604 Z" fill="#c9bda3" stroke="#4a3527" stroke-width="1.3"/>
    <rect x="290" y="600" width="20" height="16" fill="#b3a68a" stroke="#4a3527" stroke-width="1.4"/>
    <path d="M297,616 L297,606 L303,606 L303,616" fill="#4a3527"/>
  </g>

  <!-- ===================== DEEPWOODS (forest) ===================== -->
  <g>
    <use href="#pine" transform="translate(1130,470) scale(1.05)"/>
    <use href="#pine" transform="translate(1015,300) scale(1.0)"/>
    <use href="#pine" transform="translate(1000,410) scale(1.1)"/>
    <use href="#pine" transform="translate(1052,362) scale(1.0)"/>
    <use href="#pine" transform="translate(1050,470) scale(1.1)"/>
    <use href="#pine" transform="translate(1100,420) scale(1.0)"/>
    <use href="#pine" transform="translate(1108,510) scale(1.05)"/>
    <use href="#pine" transform="translate(1160,368) scale(1.0)"/>
    <use href="#pine" transform="translate(1165,460) scale(1.1)"/>
    <use href="#pine" transform="translate(1175,540) scale(1.0)"/>
    <use href="#pine" transform="translate(1258,306) scale(1.0)"/>
    <use href="#pine" transform="translate(1230,400) scale(1.1)"/>
    <use href="#pine" transform="translate(1240,500) scale(1.0)"/>
    <use href="#pine" transform="translate(1300,350) scale(1.05)"/>
    <use href="#pine" transform="translate(1310,460) scale(1.0)"/>
    <use href="#pine" transform="translate(1360,400) scale(0.95)"/>
    <use href="#pine" transform="translate(1300,540) scale(1.0)"/>
    <use href="#pine" transform="translate(1370,500) scale(0.95)"/>
  </g>

  <!-- ===================== TUNDRA TEXTURE ===================== -->
  <g stroke="#8a9385" stroke-width="1.3" fill="none" stroke-linecap="round" opacity="0.85">
    <path d="M600,300 l0,-8 M604,300 l3,-7 M596,300 l-3,-7"/>
    <path d="M650,272 l0,-8 M654,272 l3,-7 M646,272 l-3,-7"/>
    <path d="M840,300 l0,-8 M844,300 l3,-7 M836,300 l-3,-7"/>
    <path d="M870,380 l0,-8 M874,380 l3,-7 M866,380 l-3,-7"/>
    <path d="M600,460 l0,-8 M604,460 l3,-7 M596,460 l-3,-7"/>
    <path d="M800,470 l0,-8 M804,470 l3,-7 M796,470 l-3,-7"/>
  </g>
  <g stroke="#9aa596" stroke-width="1.1" fill="none" opacity="0.7">
    <path d="M660,250 l14,4 M668,258 l12,-3"/>
    <path d="M870,470 l14,4 M878,478 l12,-3"/>
  </g>

  <!-- ===================== WASTELAND TEXTURE + FRONTIER ===================== -->
  <g stroke="#8a7358" stroke-width="1.4" fill="none" stroke-linecap="round" opacity="0.8">
    <path d="M240,330 l16,10 l-8,8 l14,10"/>
    <path d="M420,340 l18,-8 l-6,12 l16,6"/>
    <path d="M470,290 l14,12 l-10,6"/>
    <path d="M250,430 l20,6 l-8,10"/>
  </g>
  <g fill="#8a7358" opacity="0.55">
    <circle cx="300" cy="300" r="1.6"/><circle cx="380" cy="330" r="1.6"/>
    <circle cx="460" cy="360" r="1.6"/><circle cx="230" cy="380" r="1.6"/>
    <circle cx="430" cy="410" r="1.6"/><circle cx="360" cy="280" r="1.6"/>
  </g>
  <!-- dashed frontier arc (wasteland's inland edge) -->
  <path d="M178,538 Q320,470 460,440 Q528,405 560,308"
        fill="none" stroke="#4a3527" stroke-width="2" stroke-dasharray="10 8" opacity="0.85"/>

  <!-- ===================== RIVERS ===================== -->
  <g fill="none" stroke="#4a6a7a" stroke-width="4.2" stroke-linecap="round">
    <!-- North River: cleft -> Heartmere -->
    <path d="M760,332 C758,362 762,388 760,408 C756,452 744,478 732,506"/>
    <!-- West River: Heartmere SW -> through mountains -> empties at Westharbor on the SW coast -->
    <path d="M648,700 C598,700 540,700 490,706 C448,720 408,742 372,770
             C330,795 288,808 238,818"/>
    <!-- East River: Bridgeton -> reaches E shore -->
    <path d="M842,648 C930,628 1000,602 1035,592 C1130,572 1240,584 1320,610
             C1352,626 1372,644 1372,652"/>
  </g>

  <!-- ===================== BRIDGES ===================== -->
  <!-- Ironford bridge on West River -->
  <g stroke="#4a3527" stroke-width="2" fill="#d8c9a6">
    <path d="M478,698 L502,694 L505,710 L481,714 Z"/>
    <path d="M484,710 q8,9 16,-1" fill="none" stroke-width="1.4"/>
  </g>
  <!-- Bridgeton bridge on East River -->
  <g stroke="#4a3527" stroke-width="2" fill="#d8c9a6">
    <path d="M893,627 L917,623 L921,639 L897,643 Z"/>
    <path d="M899,639 q8,8 16,-2" fill="none" stroke-width="1.4"/>
  </g>

  <!-- ===================== THE IRONLINE ===================== -->
  <!-- surface segment A: Ironford -> Wastewall -->
  <path d="M475,665 C460,600 445,555 430,505" fill="none" stroke="#4a3527" stroke-width="2.6"/>
  <g stroke="#4a3527" stroke-width="2" stroke-linecap="round">
    <path d="M463,635 L479,633 M451,585 L467,584 M441,545 L457,545 M431,520 L447,520"/>
  </g>
  <!-- surface segment B: tundra surface -> Cogwick -> Elfward -->
  <path d="M555,405 C620,398 690,400 762,405 C830,410 895,414 955,420" fill="none" stroke="#4a3527" stroke-width="2.6"/>
  <g stroke="#4a3527" stroke-width="2" stroke-linecap="round">
    <path d="M590,400 l0,-7 M590,400 l0,8"/>
    <path d="M625,398 l0,-7 M625,398 l0,8"/>
    <path d="M660,398 l0,-7 M660,398 l0,8"/>
    <path d="M695,401 l0,-7 M695,401 l0,8"/>
    <path d="M725,403 l0,-7 M725,403 l0,8"/>
    <path d="M800,408 l0,-7 M800,408 l0,8"/>
    <path d="M835,411 l0,-7 M835,411 l0,8"/>
    <path d="M870,413 l0,-7 M870,413 l0,8"/>
    <path d="M905,416 l0,-7 M905,416 l0,8"/>
    <path d="M935,418 l0,-7 M935,418 l0,8"/>
  </g>
  <!-- UNDERGROUND tunnel: Wastewall -> Outpost -> tundra surface -->
  <path d="M430,505 C415,470 402,438 400,405 C440,398 500,400 555,405"
        fill="none" stroke="#d8c9a6" stroke-width="10" stroke-linecap="round"/>
  <path d="M430,505 C415,470 402,438 400,405 C440,398 500,400 555,405"
        fill="none" stroke="#5a4636" stroke-width="2.2" stroke-dasharray="9 7" stroke-linecap="round"/>
  <!-- tunnel portals -->
  <g stroke="#4a3527" stroke-width="2">
    <path d="M424,510 L436,500 M420,504 L432,494"/>
    <path d="M549,411 L561,401 M553,415 L565,405"/>
  </g>

  <!-- ===================== ROADS (dotted) ===================== -->
  <g fill="none" stroke="#6b4f3a" stroke-width="3" stroke-linecap="round" stroke-dasharray="1 9">
    <!-- Free Road: Kingsreach -> Greenhollow -> Bridgeton -> Eastharbor -->
    <path d="M775,942 Q850,876 920,808 Q940,790 950,788 Q900,720 838,656
             Q1000,700 1160,650 Q1260,618 1322,600"/>
    <!-- West Road: Bridgeton -> Millbrook -> Ironford -> Westharbor -->
    <path d="M832,656 Q720,748 604,812 Q540,770 486,700 Q430,742 372,772 Q306,796 240,816"/>
    <!-- Forest Road: Eastharbor -> Rivergate -> forest -->
    <path d="M1322,600 Q1180,584 1040,592 Q980,608 940,660"/>
    <!-- Duskhold Road: off Free Road -> Duskhold -->
    <path d="M1078,668 Q1102,762 1120,856"/>
  </g>

  <!-- ===================== OFFSHORE ISLES ===================== -->
  <!-- Dragon Isle (west, lower-left water) -->
  <g stroke="#4a3527" stroke-width="2" stroke-linejoin="round">
    <path d="M52,872 q42,-30 92,-8 q26,20 4,44 q-38,30 -84,8 q-30,-24 -12,-44 Z" fill="#dcd0ad"/>
    <path d="M72,894 L102,842 L134,894 Z" fill="#8a7361"/>
    <path d="M102,842 L134,894 L116,894 L102,860 Z" fill="#6b564a"/>
    <path d="M94,860 L102,842 L110,860 L102,852 Z" fill="#a33d2f"/>
  </g>
  <circle cx="112" cy="904" r="4.6" fill="#efe6d2" stroke="#4a3527" stroke-width="1.6"/>
  <circle cx="112" cy="904" r="2" fill="#4a3527"/>

  <!-- East Islands (Tortle) — a clearly offshore SE archipelago in open water -->
  <g stroke="#4a3527" stroke-width="1.8" stroke-linejoin="round">
    <path d="M1348,798 q30,-22 62,-4 q22,20 -2,38 q-36,20 -64,-2 q-16,-18 4,-32 Z" fill="#dcd0ad"/>
    <path d="M1452,832 q22,-14 42,-2 q14,16 -4,28 q-26,12 -42,-4 q-10,-14 4,-22 Z" fill="#dcd0ad"/>
    <path d="M1336,856 q18,-12 34,0 q12,14 -6,22 q-22,10 -34,-6 q-8,-12 6,-16 Z" fill="#dcd0ad"/>
    <!-- tortle shell motif on the main island -->
    <path d="M1372,792 q0,-10 10,-10 q10,0 10,10 M1372,792 q10,-8 20,0 M1382,782 l0,20" fill="none" stroke="#8a7a5f" stroke-width="1"/>
  </g>
  <circle cx="1398" cy="806" r="4.6" fill="#efe6d2" stroke="#4a3527" stroke-width="1.6"/>
  <circle cx="1398" cy="806" r="2" fill="#4a3527"/>

  <!-- Stormhaven storm-rock (east waters) -->
  <g stroke="#4a3527" stroke-width="1.8" stroke-linejoin="round">
    <path d="M1448,692 q20,-14 40,-2 q14,16 -4,28 q-24,12 -40,-4 q-10,-14 4,-22 Z" fill="#dcd0ad"/>
  </g>
  <path d="M1470,668 l-6,14 l8,-2 l-6,14" fill="none" stroke="#a33d2f" stroke-width="2.2" stroke-linecap="round"/>
  <circle cx="1466" cy="704" r="4.4" fill="#efe6d2" stroke="#4a3527" stroke-width="1.6"/>
  <circle cx="1466" cy="704" r="1.9" fill="#4a3527"/>

  <!-- ===================== HOSTILE: ORC WARCAMP ===================== -->
  <g stroke="#4a3527" stroke-width="1.7">
    <path d="M306,448 L320,418 L334,448 Z" fill="#5b6b45"/>
    <path d="M330,450 L346,422 L362,450 Z" fill="#4f5c3b"/>
    <path d="M320,418 L320,408 M346,422 L346,410" stroke-width="1.4"/>
    <!-- palisade spikes -->
    <path d="M298,452 L302,442 L306,452 M362,452 L366,442 L370,452" fill="#6b564a" stroke-width="1.2"/>
  </g>
  <!-- skull banner -->
  <path d="M348,412 L348,392 L366,398 L348,404" fill="#a33d2f" stroke="#4a3527" stroke-width="1.3"/>
  <circle cx="320" cy="408" r="2.4" fill="#efe6d2" stroke="#4a3527" stroke-width="1"/>

  <!-- ===================== FORTS & STOPS ===================== -->
  <use href="#fort" transform="translate(430,502)"/>            <!-- Wastewall -->
  <use href="#fort" transform="translate(955,420)"/>            <!-- Elfward -->
  <use href="#fort" transform="translate(560,720) scale(0.9)"/> <!-- Stonewatch -->
  <!-- Wasteland Outpost (small stop) -->
  <g stroke="#4a3527" stroke-width="1.5" fill="#c9bda3">
    <rect x="392" y="393" width="16" height="12"/>
    <path d="M390,393 L400,385 L410,393 Z" fill="#a3543c"/>
  </g>
  <!-- Gearwatch (gnomish fort at Cogwick crossing) -->
  <use href="#fort" transform="translate(802,384) scale(0.85)"/>

  <!-- ===================== COGWICK FANCY RAIL BRIDGE ===================== -->
  <g stroke="#4a3527" stroke-width="1.8" fill="#d8c9a6">
    <path d="M742,412 L784,412 L784,400 L742,400 Z"/>
    <path d="M748,412 q6,10 12,0 M760,412 q6,10 12,0" fill="none" stroke-width="1.3"/>
    <!-- rail deck ties over the span -->
    <path d="M746,398 l0,-6 M754,398 l0,-6 M762,398 l0,-6 M770,398 l0,-6 M778,398 l0,-6" stroke-width="1.6"/>
  </g>

  <!-- ===================== TOWNS (small dots) ===================== -->
  <g stroke="#4a3527" stroke-width="1.6" fill="#efe6d2">
    <circle cx="238" cy="818" r="5.5"/>   <!-- Westharbor (coast, river-mouth) -->
    <circle cx="755" cy="404" r="5.5"/>   <!-- Cogwick -->
    <circle cx="1035" cy="590" r="5.5"/>  <!-- Rivergate -->
    <circle cx="950" cy="800" r="5.5"/>   <!-- Greenhollow -->
    <circle cx="600" cy="820" r="5.5"/>   <!-- Millbrook -->
  </g>
  <g fill="#4a3527">
    <circle cx="238" cy="818" r="2.4"/><circle cx="755" cy="404" r="2.4"/>
    <circle cx="1035" cy="590" r="2.4"/><circle cx="950" cy="800" r="2.4"/>
    <circle cx="600" cy="820" r="2.4"/>
  </g>

  <!-- ===================== DUSKHOLD (cursed ruin, mainland SE coast) ===================== -->
  <g stroke="#4a3527" stroke-width="1.8">
    <!-- broken curtain wall -->
    <path d="M1096,878 L1096,856 L1102,856 L1102,862 L1108,858 L1108,850 L1116,850 L1116,860 L1124,856 L1124,864 L1132,860 L1132,878 Z" fill="#b3a68a"/>
    <!-- cracked leaning tower -->
    <path d="M1136,880 L1140,838 L1154,842 L1150,880 Z" fill="#c9bda3"/>
    <path d="M1140,850 L1150,854 M1142,864 L1149,867" stroke="#4a3527" stroke-width="1" fill="none"/>
    <path d="M1140,838 L1140,830 L1146,830 L1146,834 L1152,834 L1152,842" fill="#c9bda3"/>
    <!-- rubble -->
    <circle cx="1090" cy="882" r="2.2" fill="#8a7a5f" stroke="none"/>
    <circle cx="1160" cy="884" r="2.2" fill="#8a7a5f" stroke="none"/>
  </g>

  <!-- ===================== FREE CITY-STATES ===================== -->
  <g stroke="#4a3527" stroke-width="2" fill="#efe6d2">
    <circle cx="835" cy="640" r="9"/>    <!-- Bridgeton -->
    <circle cx="1330" cy="600" r="9"/>   <!-- Eastharbor -->
  </g>
  <g fill="#4a3527">
    <circle cx="835" cy="640" r="4"/><circle cx="1330" cy="600" r="4"/>
  </g>
  <g stroke="#4a3527" stroke-width="1.4" fill="#a33d2f">
    <path d="M835,631 L835,614 L849,618 L835,622"/>
    <path d="M1330,591 L1330,574 L1344,578 L1330,582"/>
  </g>
  <!-- Kingsreach castle (lead city, at the southern point) -->
  <g stroke="#4a3527" stroke-width="1.8" fill="#efe6d2">
    <path d="M748,974 L748,948 L754,948 L754,954 L762,954 L762,946 L778,946 L778,954 L786,954 L786,948 L792,948 L792,974 Z"/>
    <rect x="762" y="932" width="16" height="20" fill="#c9bda3"/>
    <path d="M762,932 L762,924 L767,924 L767,928 L773,928 L773,924 L778,924 L778,932 Z" fill="#c9bda3"/>
  </g>
  <g fill="#a33d2f" stroke="#4a3527" stroke-width="1.1">
    <path d="M770,932 L770,916 L782,920 L770,924"/>
  </g>
  <!-- Ironford capital (ember star, on the mountains at West River) -->
  <path d="M475,662 L478.2,670.6 L487.4,671 L480.2,676.7 L482.6,685.5 L475,680.5 L467.4,685.5 L469.8,676.7 L462.6,671 L471.8,670.6 Z"
        fill="#a33d2f" stroke="#4a3527" stroke-width="1.8"/>

  <!-- ===================== SEA LABELS ===================== -->
  <g fill="#37545e" font-family="Georgia, 'Times New Roman', serif" font-style="italic">
    <text x="640" y="58" font-size="34" letter-spacing="8" text-anchor="middle" opacity="0.9">NORTH SEA</text>
    <text x="660" y="1050" font-size="34" letter-spacing="8" text-anchor="middle" opacity="0.9">SOUTH SEA</text>
    <text x="62" y="470" font-size="22" letter-spacing="3" text-anchor="middle" opacity="0.75" transform="rotate(-90 62 470)">OCEAN</text>
    <text x="1548" y="470" font-size="22" letter-spacing="3" text-anchor="middle" opacity="0.75" transform="rotate(90 1548 470)">OCEAN</text>
  </g>

  <!-- ===================== RIVER LABELS ===================== -->
  <g fill="#274650" font-family="Georgia, 'Times New Roman', serif" font-style="italic" font-size="15">
    <text x="772" y="250" text-anchor="start">North River</text>
    <text x="1130" y="588" text-anchor="middle" transform="rotate(-6 1130 588)">East River</text>
    <text x="430" y="742" text-anchor="middle" transform="rotate(28 430 742)">West River</text>
    <text x="668" y="558" text-anchor="middle" font-size="20" letter-spacing="1" font-style="normal">Heartmere</text>
  </g>

  <!-- ===================== REGION LABELS ===================== -->
  <g font-family="Georgia, 'Times New Roman', serif" fill="#4a3527" text-anchor="middle">
    <text x="352" y="258" font-size="20" letter-spacing="3" font-weight="bold">THE WASTELAND</text>
    <text x="655" y="342" font-size="16" letter-spacing="2" font-weight="bold">NORTHLAND TUNDRA</text>
    <text x="655" y="362" font-size="13" font-style="italic">· Gnomes ·</text>
    <text x="1115" y="322" font-size="20" letter-spacing="3" font-weight="bold">DEEPWOODS</text>
    <text x="1115" y="343" font-size="14" font-style="italic">· Elves ·</text>
    <text x="1070" y="700" font-size="22" letter-spacing="3" font-weight="bold">GREAT PLAINS</text>
    <text x="1070" y="722" font-size="15" font-style="italic">· Humans ·</text>
    <text x="490" y="560" font-size="17" letter-spacing="1" font-weight="bold">WHITE CLIFF MTNS</text>
    <text x="490" y="579" font-size="13" font-style="italic">· Dwarves ·</text>
    <text x="186" y="566" font-size="15" font-weight="bold" text-anchor="start">Ashhaven</text>
    <text x="186" y="582" font-size="12" font-style="italic" text-anchor="start">· Tieflings ·</text>
  </g>

  <!-- ===================== SETTLEMENT LABELS ===================== -->
  <g font-family="Georgia, 'Times New Roman', serif" fill="#3a2a1e" font-size="16">
    <!-- capital -->
    <text x="498" y="662" font-weight="bold">Ironford</text>
    <text x="498" y="678" font-size="12" font-style="italic">dwarf capital · bridge</text>
    <!-- free cities -->
    <text x="770" y="906" text-anchor="middle" font-weight="bold">Kingsreach</text>
    <text x="770" y="890" text-anchor="middle" font-size="12" font-style="italic">Duke · lead city</text>
    <text x="852" y="606" font-weight="bold">Bridgeton</text>
    <text x="852" y="622" font-size="12" font-style="italic">Duke</text>
    <text x="1352" y="590" font-weight="bold">Eastharbor</text>
    <text x="1352" y="606" font-size="12" font-style="italic">the Duchess</text>
    <!-- towns -->
    <text x="220" y="814" text-anchor="end" font-size="15">Westharbor</text>
    <text x="712" y="392" text-anchor="end" font-size="15">Cogwick</text>
    <text x="1035" y="575" text-anchor="middle" font-size="15">Rivergate</text>
    <text x="950" y="785" text-anchor="middle" font-size="15">Greenhollow</text>
    <text x="600" y="840" text-anchor="middle" font-size="15">Millbrook</text>
    <text x="600" y="855" text-anchor="middle" font-size="11" font-style="italic">starter village</text>
    <text x="1085" y="862" text-anchor="end" font-size="15" font-weight="bold">Duskhold</text>
    <text x="1085" y="876" text-anchor="end" font-size="11" font-style="italic">cursed ruin</text>
    <!-- hostile camp -->
    <text x="330" y="472" text-anchor="middle" font-size="14" font-weight="bold" fill="#7a3226">Orc Warcamp</text>
    <!-- forts / stops -->
    <text x="430" y="482" text-anchor="middle" font-size="13" font-weight="bold">Wastewall</text>
    <text x="405" y="378" text-anchor="middle" font-size="12">Wasteland Outpost</text>
    <text x="816" y="376" text-anchor="start" font-size="13" font-weight="bold">Gearwatch</text>
    <text x="955" y="402" text-anchor="middle" font-size="13" font-weight="bold">Elfward</text>
    <text x="560" y="746" text-anchor="middle" font-size="13" font-weight="bold">Stonewatch</text>
  </g>

  <!-- Ironline label -->
  <text x="640" y="440" font-family="Georgia, 'Times New Roman', serif" fill="#4a3527" font-size="14" font-style="italic" text-anchor="middle">the Ironline · dwarven magitech railway</text>

  <!-- ===================== ROAD LABELS ===================== -->
  <g font-family="Georgia, 'Times New Roman', serif" fill="#6b4f3a" font-size="13" font-style="italic">
    <text x="1120" y="638" text-anchor="middle" transform="rotate(-14 1120 638)">Free Road</text>
    <text x="680" y="742" text-anchor="middle" transform="rotate(24 680 742)">West Road</text>
    <text x="1010" y="628" text-anchor="middle" transform="rotate(10 1010 628)">Forest Road</text>
    <text x="1058" y="770" text-anchor="middle" transform="rotate(70 1058 770)">Duskhold Road</text>
  </g>

  <!-- ===================== OFFSHORE LABELS ===================== -->
  <g font-family="Georgia, 'Times New Roman', serif" fill="#3a2a1e" font-size="15">
    <text x="112" y="944" text-anchor="middle" font-weight="bold">Dragon Isle</text>
    <text x="112" y="960" text-anchor="middle" font-size="11" font-style="italic">Dragons &amp; Dragonborn</text>
    <text x="112" y="976" text-anchor="middle" font-size="12" font-style="italic">Emberport</text>
    <text x="1420" y="758" text-anchor="middle" font-weight="bold">East Islands</text>
    <text x="1420" y="773" text-anchor="middle" font-size="11" font-style="italic">· Tortle ·</text>
    <text x="1398" y="822" text-anchor="middle" font-size="12" font-style="italic">Shellhaven</text>
    <text x="1466" y="660" text-anchor="middle" font-size="13" font-weight="bold">Stormhaven</text>
  </g>

  <!-- ===================== COMPASS ROSE (small, top-left ocean) ===================== -->
  <g>
    <circle cx="140" cy="205" r="32" fill="#efe6d2" stroke="#4a3527" stroke-width="1.8" opacity="0.92"/>
    <circle cx="140" cy="205" r="25" fill="none" stroke="#8a7a5f" stroke-width="0.9"/>
    <g fill="#b3a68a" stroke="#4a3527" stroke-width="0.8">
      <path d="M140,205 L155,190 L147,199 Z"/><path d="M140,205 L155,220 L147,211 Z"/>
      <path d="M140,205 L125,220 L133,211 Z"/><path d="M140,205 L125,190 L133,199 Z"/>
    </g>
    <g stroke="#4a3527" stroke-width="1">
      <path d="M140,205 L135,200 L140,175 L145,200 Z" fill="#efe6d2"/>
      <path d="M140,205 L145,200 L170,205 L145,210 Z" fill="#b3a68a"/>
      <path d="M140,205 L145,210 L140,235 L135,210 Z" fill="#b3a68a"/>
      <path d="M140,205 L135,210 L110,205 L135,200 Z" fill="#efe6d2"/>
    </g>
    <path d="M140,175 L143,200 L140,205 L137,200 Z" fill="#a33d2f" stroke="#4a3527" stroke-width="0.8"/>
    <text x="140" y="168" text-anchor="middle" font-family="Georgia, serif" font-size="14" font-weight="bold" fill="#4a3527">N</text>
    <text x="184" y="210" text-anchor="middle" font-family="Georgia, serif" font-size="12" fill="#4a3527">E</text>
    <text x="140" y="256" text-anchor="middle" font-family="Georgia, serif" font-size="12" fill="#4a3527">S</text>
    <text x="96" y="210" text-anchor="middle" font-family="Georgia, serif" font-size="12" fill="#4a3527">W</text>
  </g>

  <!-- ===================== SCALE BAR (bottom-left ocean) ===================== -->
  <g>
    <text x="190" y="990" text-anchor="middle" font-family="Georgia, serif" font-size="14" fill="#4a3527" font-style="italic">miles</text>
    <rect x="80" y="998" width="110" height="13" fill="#4a3527" stroke="#4a3527" stroke-width="1"/>
    <rect x="190" y="998" width="110" height="13" fill="#efe6d2" stroke="#4a3527" stroke-width="1"/>
    <g stroke="#4a3527" stroke-width="1.4">
      <path d="M80,995 L80,1014 M190,995 L190,1014 M300,995 L300,1014"/>
    </g>
    <g font-family="Georgia, serif" font-size="14" fill="#4a3527" text-anchor="middle">
      <text x="80" y="1032">0</text><text x="190" y="1032">50</text><text x="300" y="1032">100</text>
    </g>
  </g>

  <!-- ===================== LEGEND (lower-right ocean) ===================== -->
  <g>
    <rect x="1225" y="880" width="355" height="176" rx="10" fill="#efe6d2" stroke="#4a3527" stroke-width="2.4"/>
    <rect x="1233" y="888" width="339" height="160" rx="7" fill="none" stroke="#8a7a5f" stroke-width="1"/>
    <text x="1402" y="910" text-anchor="middle" font-family="Georgia, serif" font-size="18" font-weight="bold" letter-spacing="4" fill="#4a3527">LEGEND</text>
    <g font-family="Georgia, serif" font-size="13" fill="#3a2a1e">
      <!-- left column -->
      <path d="M1252,928 L1254.2,933.9 L1260.6,934.2 L1255.6,938.2 L1257.3,944.3 L1252,940.8 L1246.7,944.3 L1248.4,938.2 L1243.4,934.2 L1249.8,933.9 Z" fill="#a33d2f" stroke="#4a3527" stroke-width="1"/>
      <text x="1270" y="940">Capital (Ironford)</text>
      <circle cx="1252" cy="960" r="7" fill="#efe6d2" stroke="#4a3527" stroke-width="1.8"/>
      <circle cx="1252" cy="960" r="3" fill="#4a3527"/>
      <text x="1270" y="964">Free city (ducal seat)</text>
      <circle cx="1252" cy="984" r="4.6" fill="#efe6d2" stroke="#4a3527" stroke-width="1.5"/>
      <circle cx="1252" cy="984" r="2" fill="#4a3527"/>
      <text x="1270" y="988">Town</text>
      <use href="#fort" transform="translate(1252,1010) scale(0.72)"/>
      <text x="1270" y="1012">Fort</text>
      <!-- right column -->
      <path d="M1408,930 L1408,910 L1424,916 L1408,922" fill="#8a7a5f" stroke="#4a3527" stroke-width="1"/>
      <path d="M1400,924 L1416,924 L1416,912 L1400,912 Z" fill="#b3a68a" stroke="#4a3527" stroke-width="1.2"/>
      <text x="1432" y="940">Ruin (Duskhold)</text>
      <path d="M1400,960 L1428,960" fill="none" stroke="#6b4f3a" stroke-width="3" stroke-linecap="round" stroke-dasharray="1 9"/>
      <text x="1432" y="964">Road</text>
      <path d="M1400,984 L1428,984" fill="none" stroke="#4a3527" stroke-width="2.4"/>
      <path d="M1404,979 l0,10 M1412,979 l0,10 M1420,979 l0,10" stroke="#4a3527" stroke-width="1.6"/>
      <text x="1432" y="988">Ironline (rail)</text>
      <path d="M1400,1008 L1428,1008" fill="none" stroke="#d8c9a6" stroke-width="7"/>
      <path d="M1400,1008 L1428,1008" fill="none" stroke="#5a4636" stroke-width="2" stroke-dasharray="7 5"/>
      <text x="1432" y="1012">Underground rail</text>
      <!-- river swatch spanning bottom -->
      <path d="M1252,1032 q9,-7 18,0 q9,7 18,0" fill="none" stroke="#4a6a7a" stroke-width="3.2" stroke-linecap="round"/>
      <text x="1300" y="1037">River</text>
    </g>
  </g>

  <!-- ===================== NEATLINE ===================== -->
  <rect x="10" y="10" width="1580" height="1060" rx="6" fill="none" stroke="#4a3527" stroke-width="3"/>
  <rect x="18" y="18" width="1564" height="1044" rx="4" fill="none" stroke="#4a3527" stroke-width="1.2"/>
</svg>
